name rise30.8019peak61.5557fall86.2505.mot
datacolumns 19
datarows 23
range 19.21992500000000 19.25659700000000
endheader
time	ground_force1_vx	ground_force1_vy	ground_force1_vz	ground_force1_px	ground_force1_py	ground_force1_pz	ground_force2_vx	ground_force2_vy	ground_force2_vz	ground_force2_px	ground_force2_py	ground_force2_pz	ground_torque1_x	ground_torque1_y	ground_torque1_z	ground_torque2_x	ground_torque2_y	ground_torque2_z	
19.21992500000000	-46.79678300000000	771.70709999999997	45.34865900000000	0.01523700000000	0.00000000000000	0.10548400000000	-3.10694900000000	11.24694200000000	2.76909800000000	0.00000000000000	0.00000000000000	0.00000000000000	0.00000000000000	12.97830300000000	0.00000000000000	0.00000000000000	0.63593700000000	0.00000000000000	
19.22159300000000	-46.85437600000000	769.65437799999995	45.19038900000000	0.01468300000000	0.00000000000000	0.10542300000000	-4.17024800000000	15.87799400000000	3.78279500000000	0.00000000000000	0.00000000000000	0.00000000000000	0.00000000000000	12.88745800000000	0.00000000000000	0.00000000000000	0.87981000000000	0.00000000000000	
19.22326500000000	-46.92756600000000	767.52792099999999	45.01653400000000	0.01413100000000	0.00000000000000	0.10535800000000	-5.29891300000000	21.03789000000000	4.87870200000000	0.00000000000000	0.00000000000000	0.00000000000000	0.00000000000000	12.79997000000000	0.00000000000000	0.00000000000000	1.14646400000000	0.00000000000000	
19.22492800000000	-47.01704500000000	765.32903699999997	44.82704800000000	0.01358000000000	0.00000000000000	0.10528900000000	-6.45500400000000	26.61887800000000	6.02510200000000	0.30084500000000	0.00000000000000	-0.05909900000000	0.00000000000000	12.71602800000000	0.00000000000000	0.00000000000000	2.86004600000000	0.00000000000000	
19.22659800000000	-47.12347200000000	763.05899099999999	44.62190900000000	0.01303000000000	0.00000000000000	0.10521500000000	-7.59815600000000	32.49741800000000	7.18743900000000	0.30411200000000	0.00000000000000	-0.05931200000000	0.00000000000000	12.63581000000000	0.00000000000000	0.00000000000000	3.45450000000000	0.00000000000000	
19.22826200000000	-47.24747300000000	760.71899800000006	44.40111500000000	0.01248100000000	0.00000000000000	0.10513700000000	-8.68864400000000	38.54450800000000	8.33098400000000	0.30710500000000	0.00000000000000	-0.05953500000000	0.00000000000000	12.55948300000000	0.00000000000000	0.00000000000000	4.05113300000000	0.00000000000000	
19.22992900000000	-47.38963500000000	758.31021499999997	44.16468900000000	0.01193400000000	0.00000000000000	0.10505500000000	-9.69031400000000	44.63610400000000	9.42343800000000	0.30985400000000	0.00000000000000	-0.05976700000000	0.00000000000000	12.48720500000000	0.00000000000000	0.00000000000000	4.63377800000000	0.00000000000000	
19.23159400000000	-47.55050500000000	755.83372599999996	43.91267100000000	0.01138700000000	0.00000000000000	0.10496800000000	-10.57298200000000	50.66226300000000	10.43711400000000	0.31238600000000	0.00000000000000	-0.06000800000000	0.00000000000000	12.41912100000000	0.00000000000000	0.00000000000000	5.18811100000000	0.00000000000000	
19.23326600000000	-47.73058600000000	753.29053899999997	43.64512600000000	0.01084100000000	0.00000000000000	0.10487800000000	-11.31408700000000	56.53404900000000	11.35050400000000	0.31472100000000	0.00000000000000	-0.06025600000000	0.00000000000000	12.35536400000000	0.00000000000000	0.00000000000000	5.70251700000000	0.00000000000000	
19.23492900000000	-47.93033700000000	750.68157199999996	43.36213700000000	0.01029500000000	0.00000000000000	0.10478200000000	-11.89949400000000	62.18773700000000	12.14911700000000	0.31687800000000	0.00000000000000	-0.06051200000000	0.00000000000000	12.29605600000000	0.00000000000000	0.00000000000000	6.16860700000000	0.00000000000000	
19.23659600000000	-48.15016600000000	748.00765100000001	43.06380700000000	0.00975000000000	0.00000000000000	0.10468300000000	-12.32348700000000	67.58630100000001	12.82561100000000	0.31887200000000	0.00000000000000	-0.06077400000000	0.00000000000000	12.24130800000000	0.00000000000000	0.00000000000000	6.58139400000000	0.00000000000000	
19.23826700000000	-48.39043100000000	745.26949800000000	42.75026100000000	0.00920400000000	0.00000000000000	0.10457900000000	-12.58808100000000	72.71845700000000	13.37932700000000	0.32071700000000	0.00000000000000	-0.06104300000000	0.00000000000000	12.19121600000000	0.00000000000000	0.00000000000000	6.93915900000000	0.00000000000000	
19.23993300000000	-48.65143600000000	742.46772599999997	42.42164100000000	0.00865800000000	0.00000000000000	0.10447100000000	-12.70180400000000	77.59574700000000	13.81534600000000	0.32242300000000	0.00000000000000	-0.06131700000000	0.00000000000000	12.14586400000000	0.00000000000000	0.00000000000000	7.24307300000000	0.00000000000000	
19.24159700000000	-48.93342800000000	739.60283200000003	42.07810800000000	0.00811100000000	0.00000000000000	0.10435800000000	-12.67816600000000	82.24825100000000	14.14323400000000	0.32400200000000	0.00000000000000	-0.06159700000000	0.00000000000000	12.10532500000000	0.00000000000000	0.00000000000000	7.49663800000000	0.00000000000000	
19.24326700000000	-49.23659300000000	736.67519100000004	41.71984200000000	0.00756200000000	0.00000000000000	0.10424200000000	-12.53397400000000	86.71951199999999	14.37564600000000	0.32546200000000	0.00000000000000	-0.06188300000000	0.00000000000000	12.06965600000000	0.00000000000000	0.00000000000000	7.70503800000000	0.00000000000000	
19.24492600000000	-49.56105700000000	733.68505200000004	41.34703800000000	0.00701300000000	0.00000000000000	0.10412100000000	-12.28767400000000	91.06122999999999	14.52690500000000	0.32680900000000	0.00000000000000	-0.06217300000000	0.00000000000000	12.03890200000000	0.00000000000000	0.00000000000000	7.87446200000000	0.00000000000000	
19.24659600000000	-49.90688200000000	730.63253299999997	40.95991100000000	0.00646100000000	0.00000000000000	0.10399600000000	-11.95783400000000	95.32821100000000	14.61169900000000	0.32805200000000	0.00000000000000	-0.06246700000000	0.00000000000000	12.01309400000000	0.00000000000000	0.00000000000000	8.01146300000000	0.00000000000000	
19.24825900000000	-50.27406200000000	727.51761999999997	40.55869100000000	0.00590700000000	0.00000000000000	0.10386800000000	-11.56188400000000	99.57391100000000	14.64396800000000	0.32919600000000	0.00000000000000	-0.06276600000000	0.00000000000000	11.99225000000000	0.00000000000000	0.00000000000000	8.12239500000000	0.00000000000000	
19.24993000000000	-50.66252300000000	724.34015799999997	40.14362300000000	0.00535000000000	0.00000000000000	0.10373500000000	-11.11515300000000	103.84683300000000	14.63603500000000	0.33024700000000	0.00000000000000	-0.06306800000000	0.00000000000000	11.97637300000000	0.00000000000000	0.00000000000000	8.21296800000000	0.00000000000000	
19.25160100000000	-51.07211900000000	721.09985700000004	39.71496900000000	0.00479000000000	0.00000000000000	0.10359900000000	-10.63023100000000	108.18790799999999	14.59801500000000	0.33120800000000	0.00000000000000	-0.06337500000000	0.00000000000000	11.96545500000000	0.00000000000000	0.00000000000000	8.28792800000000	0.00000000000000	
19.25326200000000	-51.50263300000000	717.79628700000001	39.27300200000000	0.00422700000000	0.00000000000000	0.10345800000000	-10.11664600000000	112.62888000000000	14.53748800000000	0.33208600000000	0.00000000000000	-0.06368400000000	0.00000000000000	11.95947100000000	0.00000000000000	0.00000000000000	8.35087000000000	0.00000000000000	
19.25493000000000	-51.95377100000000	714.42887399999995	38.81801400000000	0.00365900000000	0.00000000000000	0.10331500000000	-9.58082800000000	117.19163900000000	14.45942200000000	0.33288300000000	0.00000000000000	-0.06399700000000	0.00000000000000	11.95838300000000	0.00000000000000	0.00000000000000	8.40416900000000	0.00000000000000	
19.25659700000000	-52.42516400000000	710.99691099999995	38.35030700000000	0.00308700000000	0.00000000000000	0.10316800000000	-9.02630300000000	121.88838900000000	14.36629800000000	0.33360300000000	0.00000000000000	-0.06431300000000	0.00000000000000	11.96213900000000	0.00000000000000	0.00000000000000	8.44902100000000	0.00000000000000	
